<?xml version="1.0" standalone="no"?>
<!DOCTYPE svg PUBLIC "-//W3C//DTD SVG 20010904//EN"
 "http://www.w3.org/TR/2001/REC-SVG-20010904/DTD/svg10.dtd">
<svg version="1.0" xmlns="http://www.w3.org/2000/svg"
 width="1080.000000pt" height="1080.000000pt" viewBox="0 0 1080.000000 1080.000000"
 preserveAspectRatio="xMidYMid meet">

<g transform="translate(0.000000,1080.000000) scale(0.100000,-0.100000)"
fill="#000000" stroke="none">
<path d="M0 9236 c0 -1299 2 -1565 13 -1575 12 -9 13 6 9 92 -3 78 -2 99 7 91
7 -6 17 -45 22 -85 5 -41 11 -78 12 -82 2 -5 24 21 51 57 27 36 52 66 57 66
22 0 5 -43 -41 -106 l-49 -68 27 -16 c15 -9 62 -31 106 -50 70 -31 97 -52 84
-66 -3 -2 -51 16 -108 41 -57 24 -106 43 -108 41 -2 -3 2 -30 8 -61 6 -31 9
-63 6 -72 -11 -27 -34 4 -41 55 -9 68 -18 79 -38 48 -16 -23 -17 -304 -17
-3786 l0 -3760 5141 0 5140 0 -28 24 c-43 37 -21 41 39 7 30 -17 64 -31 77
-31 21 0 21 2 15 80 -5 53 -3 80 3 80 13 0 19 -23 28 -102 4 -33 12 -58 19
-58 6 0 30 28 54 61 23 33 47 57 52 54 12 -7 3 -32 -26 -72 -13 -17 -24 -34
-24 -37 0 -3 70 -6 155 -6 l155 0 0 5400 0 5400 -5400 0 -5400 0 0 -1564z
m2603 142 c3 -13 9 -51 13 -85 3 -35 10 -63 14 -63 4 0 26 27 49 60 23 33 49
60 56 60 21 0 9 -24 -46 -102 l-48 -67 33 -20 c18 -12 36 -21 39 -21 3 0 41
-16 83 -35 53 -24 74 -39 67 -46 -7 -7 -39 3 -104 31 -52 23 -100 44 -108 47
-11 5 -13 -1 -7 -28 16 -81 19 -119 7 -119 -14 0 -21 17 -36 89 l-11 56 -43
-58 c-24 -31 -47 -57 -52 -57 -20 0 -6 38 31 85 22 28 40 55 40 61 0 7 -29 31
-64 54 -36 23 -70 48 -77 56 -25 31 2 23 76 -21 43 -25 79 -44 80 -43 2 2 -1
26 -5 53 -12 67 -12 135 -1 135 5 0 11 -10 14 -22z m6378 -439 c4 -13 8 -42 9
-64 3 -81 11 -82 63 -11 26 37 51 66 57 66 21 0 9 -31 -40 -102 -59 -86 -64
-77 81 -141 53 -24 89 -45 89 -54 0 -18 -14 -14 -134 38 l-89 39 8 -53 c12
-81 11 -92 -5 -92 -10 0 -19 21 -30 68 l-15 67 -26 -32 c-14 -18 -31 -43 -38
-55 -6 -13 -18 -23 -26 -23 -29 0 -14 38 43 108 19 23 33 44 31 46 -2 1 -26
18 -54 36 -108 71 -141 126 -39 65 31 -19 65 -42 75 -51 11 -10 21 -15 23 -13
3 2 1 36 -4 74 -5 39 -9 81 -10 93 0 30 22 24 31 -9z m-2358 -992 l21 18 -18
-28 -17 -28 30 -12 c17 -6 31 -15 31 -19 0 -5 -14 -1 -31 8 -31 16 -32 15 -26
-5 3 -12 1 -21 -4 -21 -5 0 -9 7 -9 16 0 14 -2 15 -17 3 -15 -13 -15 -12 -5 8
10 19 9 24 -10 38 l-23 17 23 -7 c18 -5 22 -2 23 17 l2 23 4 -23 c5 -23 5 -23
26 -5z m-4491 -499 c-18 -18 -15 -26 16 -43 24 -15 15 -14 -22 1 -10 4 -14 0
-12 -13 2 -10 1 -12 -1 -5 -3 8 -12 11 -20 8 -12 -5 -13 -3 -5 7 9 10 8 17 -1
27 -9 10 -9 11 1 6 7 -5 12 -1 12 11 0 15 2 16 10 3 8 -12 10 -12 16 3 3 10 9
15 12 12 3 -3 0 -11 -6 -17z m-866 -951 c208 -69 313 -223 314 -459 0 -158
-40 -260 -137 -346 l-62 -56 64 -59 c109 -99 155 -218 155 -396 0 -204 -91
-363 -252 -440 -96 -45 -162 -52 -468 -49 l-275 3 -3 904 c-2 696 1 907 10
918 10 13 55 14 293 11 270 -4 283 -6 361 -31z m1222 21 c9 -12 402 -1785 402
-1816 0 -10 -34 -12 -152 -10 l-153 3 -18 100 c-9 55 -22 124 -28 153 l-11 52
-206 -2 -207 -3 -18 -100 c-9 -55 -22 -124 -28 -152 l-10 -53 -150 0 c-82 0
-149 3 -149 8 -1 23 395 1809 403 1820 7 9 52 12 162 12 110 0 155 -3 163 -12z
m921 -1 c8 -10 12 -238 13 -793 l3 -779 303 -3 302 -2 0 -125 0 -125 -449 0
c-400 0 -450 2 -455 16 -3 9 -6 418 -6 909 0 841 1 895 18 904 27 16 257 14
271 -2z m1149 1 c9 -9 12 -198 12 -790 l0 -778 294 0 c239 0 296 -3 305 -14 8
-9 11 -52 9 -127 l-3 -114 -455 0 -455 0 -3 904 c-1 659 1 907 9 917 15 19
269 20 287 2z m1762 -7 c11 -21 14 -181 4 -218 l-6 -23 -302 -2 -301 -3 0
-260 0 -260 185 -5 185 -5 0 -125 0 -125 -185 -5 -185 -5 -3 -262 -2 -263 294
0 c254 0 297 -2 310 -16 12 -12 16 -38 16 -114 0 -54 -3 -105 -6 -114 -5 -14
-55 -16 -460 -16 l-454 0 0 913 c0 503 3 917 7 920 3 4 206 7 449 7 428 0 444
-1 454 -19z m913 4 c237 -50 379 -270 364 -560 -11 -187 -80 -325 -203 -402
-24 -15 -42 -32 -41 -38 30 -83 257 -797 257 -809 0 -14 -18 -16 -150 -16
-134 0 -151 2 -157 18 -4 9 -57 186 -118 392 l-112 375 -81 3 -82 3 -2 -393
-3 -393 -144 -3 c-109 -2 -146 1 -153 10 -12 20 -10 1785 2 1809 10 18 24 19
283 19 198 0 291 -4 340 -15z m935 -908 l2 -918 -147 3 -148 3 -3 905 c-1 498
0 911 3 918 3 10 39 12 147 10 l143 -3 3 -918z m655 911 c10 -8 96 -237 202
-533 231 -648 215 -606 226 -599 5 3 9 236 9 563 0 420 3 560 12 569 15 15
245 17 268 2 13 -8 15 -120 18 -887 1 -483 0 -893 -3 -911 l-6 -32 -161 2
-161 3 -193 550 c-214 609 -210 599 -224 590 -6 -3 -7 -209 -3 -548 3 -299 3
-555 -1 -570 l-7 -28 -142 3 -142 3 -3 904 c-1 659 1 907 9 917 16 19 277 20
302 2z m1366 -2 c8 -10 10 -258 9 -917 l-3 -904 -144 -3 c-109 -2 -146 1 -153
10 -12 20 -10 1785 2 1809 10 17 22 19 144 19 100 0 136 -3 145 -14z m-6419
-2387 c55 -33 104 -91 141 -168 19 -38 37 -70 41 -70 4 -1 36 12 70 28 35 15
88 38 118 51 30 12 66 26 80 32 74 30 239 66 360 78 197 20 341 -31 420 -148
13 -20 18 -21 40 -9 29 15 112 45 225 80 144 45 330 60 398 32 53 -22 97 -71
97 -108 0 -51 12 -63 46 -43 89 49 203 90 314 111 132 25 383 21 418 -8 7 -5
15 -7 18 -4 6 5 121 -30 139 -43 6 -4 40 -13 77 -20 56 -10 85 -9 184 5 65 9
129 21 142 26 34 13 42 11 42 -11 0 -26 -69 -58 -82 -38 -6 10 -8 8 -8 -4 0
-12 -8 -18 -25 -18 -14 0 -25 -4 -25 -10 0 -6 -9 -6 -23 -1 -14 6 -30 5 -42
-1 -27 -16 -85 -14 -96 2 -7 12 -9 12 -9 -3 0 -14 -5 -16 -27 -11 -16 4 -32
11 -37 15 -6 5 -27 9 -48 9 -24 0 -41 5 -44 14 -3 8 -13 12 -26 8 -11 -2 -23
1 -28 8 -4 6 -24 13 -43 15 -20 2 -45 8 -55 14 -11 6 -22 8 -25 4 -3 -3 -14
-2 -24 3 -10 4 -25 9 -33 10 -79 12 -90 12 -84 2 5 -7 2 -8 -6 -3 -19 12 -63
14 -75 4 -14 -10 -55 -7 -55 3 0 5 -9 4 -19 -2 -26 -13 -54 -13 -45 1 3 6 -5
3 -20 -6 -14 -10 -35 -15 -45 -12 -11 3 -22 -1 -25 -8 -2 -7 -17 -12 -31 -12
-15 0 -31 -6 -35 -13 -4 -7 -13 -9 -19 -6 -6 4 -11 2 -11 -3 0 -6 -7 -11 -17
-11 -18 0 -126 -51 -131 -62 -2 -5 -9 -8 -16 -8 -22 0 -71 -54 -115 -128 -29
-47 -47 -69 -52 -61 -5 8 -8 4 -11 -12 -2 -14 -14 -29 -30 -37 -16 -7 -28 -17
-28 -22 0 -5 -9 -12 -20 -15 -11 -3 -20 -13 -20 -21 0 -8 -4 -12 -10 -9 -5 3
-10 2 -10 -2 0 -20 -42 -11 -52 11 -8 20 -5 32 25 78 37 59 130 157 186 199
29 21 34 32 39 77 5 54 -13 92 -44 92 -7 0 -14 5 -16 12 -3 7 -22 12 -47 12
-33 0 -41 3 -36 15 5 13 4 13 -12 0 -11 -9 -39 -14 -73 -13 -30 0 -60 -3 -67
-8 -7 -6 -21 -7 -31 -4 -12 4 -22 1 -25 -7 -3 -8 -27 -17 -55 -21 -27 -3 -64
-13 -81 -22 -18 -9 -39 -13 -47 -10 -8 3 -17 -1 -20 -9 -4 -8 -19 -15 -34 -15
-15 0 -39 -9 -53 -20 -14 -11 -30 -20 -35 -20 -11 0 -22 -33 -22 -67 0 -13 -4
-23 -9 -23 -5 0 -8 -11 -8 -26 0 -14 -10 -35 -22 -48 -11 -12 -21 -27 -21 -34
0 -6 -9 -17 -20 -25 -11 -8 -17 -16 -15 -19 3 -3 -10 -18 -30 -34 -20 -16 -47
-39 -61 -51 -14 -13 -30 -23 -36 -23 -6 0 -16 -7 -23 -16 -14 -19 -85 -46 -85
-32 0 5 -7 2 -16 -6 -8 -9 -31 -16 -49 -16 -31 0 -35 4 -46 38 -16 56 2 111
59 172 64 70 158 143 239 186 86 46 87 47 72 75 -11 22 -55 69 -64 69 -2 0
-16 5 -32 12 -15 6 -31 12 -35 13 -5 2 -11 4 -15 5 -17 6 -30 8 -75 9 -26 0
-53 7 -61 15 -10 10 -18 11 -25 4 -8 -8 -82 -18 -174 -22 -14 0 -24 -4 -22 -7
2 -4 -11 -10 -29 -14 -17 -4 -39 -10 -47 -12 -8 -2 -25 -4 -37 -4 -12 0 -25
-4 -28 -9 -3 -6 -17 -10 -31 -10 -14 0 -46 -11 -71 -25 -30 -15 -49 -21 -53
-14 -4 6 -12 4 -21 -7 -7 -9 -42 -30 -77 -47 -34 -16 -66 -35 -70 -41 -3 -6
-7 -39 -8 -74 -1 -47 -6 -68 -21 -85 -11 -12 -23 -30 -27 -41 -4 -11 -12 -16
-22 -12 -12 4 -15 2 -11 -9 4 -10 -5 -20 -29 -31 -52 -25 -104 -26 -136 -2
-24 16 -27 25 -23 55 8 60 85 153 171 205 26 15 30 23 26 46 -3 15 -13 41 -23
57 -11 17 -23 41 -29 54 -13 30 -93 105 -117 109 -10 2 -26 4 -35 6 -24 3 -31
12 -25 31 9 22 65 19 107 -6z m5914 -386 c3 -21 8 -59 12 -85 3 -27 9 -48 13
-48 3 0 24 27 46 60 22 33 46 62 53 64 27 11 10 -35 -38 -100 -51 -69 -51 -69
-29 -84 12 -8 62 -32 110 -53 51 -22 89 -45 89 -53 0 -8 -2 -14 -4 -14 -2 0
-50 20 -107 45 -56 24 -105 43 -107 40 -3 -2 1 -32 7 -66 8 -40 9 -65 3 -71
-14 -14 -29 18 -38 80 -3 29 -9 52 -13 52 -3 0 -24 -25 -46 -55 -39 -55 -46
-61 -58 -49 -8 8 6 35 49 91 19 25 34 48 34 53 0 5 -31 29 -69 54 -38 24 -72
49 -76 56 -17 27 9 19 81 -24 42 -25 78 -46 79 -46 1 0 -1 19 -6 43 -11 57
-11 147 0 147 5 0 12 -17 15 -37z m-1837 -87 c-15 -22 -14 -24 6 -35 16 -8 17
-10 3 -6 -10 3 -30 -2 -43 -10 -23 -16 -23 -15 -11 5 11 18 10 23 -6 36 -11 8
-15 14 -10 14 6 0 15 -5 22 -12 9 -9 12 -9 12 1 0 7 4 10 9 7 5 -3 11 1 15 9
3 8 8 15 12 15 3 0 -1 -11 -9 -24z m-6793 -187 l11 -81 47 66 c27 36 55 66 63
66 21 0 10 -24 -46 -103 -27 -37 -49 -69 -49 -71 0 -2 44 -23 98 -46 134 -59
136 -60 124 -72 -11 -11 -80 12 -176 60 l-49 24 7 -34 c18 -90 19 -118 3 -118
-16 0 -37 54 -37 97 0 38 -17 35 -49 -9 -46 -65 -52 -71 -63 -60 -12 12 3 42
49 98 18 23 33 45 33 50 0 5 -15 18 -32 28 -57 33 -117 81 -118 94 0 6 2 12 4
12 9 0 127 -73 132 -81 16 -26 21 1 16 89 -3 79 -2 95 9 85 7 -7 17 -49 23
-94z m1344 -757 c15 12 16 11 3 -5 -8 -10 -14 -32 -14 -50 0 -18 -2 -24 -4
-14 -5 20 -19 23 -26 5 -4 -10 -6 -10 -6 -1 -1 6 4 15 9 18 8 5 7 12 -2 23
-10 12 -10 14 0 8 8 -5 12 -1 13 11 0 11 3 13 6 5 4 -10 8 -10 21 0z m32 -52
c8 -5 11 -10 5 -10 -5 0 -17 5 -25 10 -8 5 -10 10 -5 10 6 0 17 -5 25 -10z
m2585 -141 c4 -38 10 -69 14 -69 8 0 45 47 73 92 17 27 48 39 48 18 0 -5 -24
-45 -54 -89 l-54 -79 88 -41 c49 -23 92 -41 97 -41 16 -1 45 -29 39 -39 -6 -9
-55 7 -170 58 -27 12 -50 20 -52 18 -2 -2 1 -29 7 -60 6 -31 8 -64 5 -74 -7
-17 -8 -17 -21 1 -8 10 -17 42 -21 72 -3 30 -9 54 -13 54 -3 0 -17 -16 -31
-36 -53 -75 -58 -80 -70 -68 -12 12 9 53 59 114 11 14 21 28 21 33 0 4 -24 22
-52 41 -66 42 -98 70 -98 85 0 6 2 11 4 11 8 0 120 -70 137 -86 19 -17 19 -15
13 87 -5 93 -4 102 9 86 8 -10 18 -49 22 -88z"/>
<path d="M905 6249 c-3 -13 -4 -130 -3 -259 l3 -235 95 -3 c108 -4 155 7 200
45 50 42 73 97 78 189 6 106 -14 169 -69 219 -54 48 -76 55 -196 62 -101 6
-102 6 -108 -18z"/>
<path d="M905 5509 c-3 -13 -4 -143 -3 -289 l3 -265 85 -3 c124 -5 183 11 234
62 52 51 71 111 71 221 0 100 -18 163 -61 213 -50 59 -90 74 -215 80 -107 5
-108 5 -114 -19z"/>
<path d="M2310 6083 c0 -5 -33 -192 -74 -418 -41 -225 -72 -413 -69 -417 2 -5
74 -8 159 -8 129 0 154 2 154 15 0 8 -34 197 -75 421 -41 224 -75 408 -75 410
0 2 -4 4 -10 4 -5 0 -10 -3 -10 -7z"/>
<path d="M6915 6257 c-3 -7 -4 -131 -3 -277 l3 -265 111 0 c106 1 114 2 159
30 57 36 91 95 106 184 26 163 -46 303 -170 330 -73 15 -200 14 -206 -2z"/>
<path d="M4915 3800 c-3 -5 -15 -10 -26 -10 -10 0 -19 -4 -19 -10 0 -5 -5 -10
-10 -10 -6 0 -40 -23 -76 -51 -53 -41 -68 -48 -76 -38 -7 10 -8 8 -5 -8 6 -28
-5 -37 -50 -42 -16 -2 -16 -3 1 -10 18 -7 18 -8 -5 -27 -25 -20 -52 -81 -43
-95 7 -11 37 -12 50 -1 5 5 31 17 58 27 72 26 205 163 228 234 15 49 15 51 -2
51 -10 0 -22 -4 -25 -10z"/>
<path d="M3827 3736 c-71 -76 -73 -79 -79 -103 -14 -53 59 -38 119 24 37 40
43 51 43 89 0 59 -21 57 -83 -10z"/>
<path d="M0 7610 c0 -19 3 -21 12 -12 9 9 9 15 0 24 -9 9 -12 7 -12 -12z"/>
</g>
</svg>
